<?xml version="1.0" encoding="utf-8"?>
<!-- Generator: Adobe Illustrator 15.0.0, SVG Export Plug-In . SVG Version: 6.00 Build 0)  -->
<!DOCTYPE svg PUBLIC "-//W3C//DTD SVG 1.1//EN" "http://www.w3.org/Graphics/SVG/1.1/DTD/svg11.dtd">
<svg version="1.1" id="Layer_1" xmlns="http://www.w3.org/2000/svg" xmlns:xlink="http://www.w3.org/1999/xlink" x="0px" y="0px"
	 width="363.191px" height="214.955px" viewBox="0 0 363.191 214.955" enable-background="new 0 0 363.191 214.955"
	 xml:space="preserve">
<g>
	<path fill-rule="evenodd" clip-rule="evenodd" fill="#FFFFFF" d="M63.776,52.117c0,0-10.182-8.252-23.029,6.505
		C27.9,73.38,19.616,86.272,8.895,84.232c-10.722-2.04-10.406-5.309-8.228-12.646s11.733-13.906,19.06-21.77
		c7.325-7.863,8.281-7.651,10.192-11.898c1.911-4.247,15.634-21.484,20.18-24.762C54.644,9.878,70.701-3.952,88.319,2.863
		c17.618,6.814,28.298,26.711,39.946,60.824c0,0,14.258,48.183,16.799,51.635c2.541,3.452,3.461,3.582,3.461,3.582
		s14.664-38.338,42.362-54.831c27.698-16.493,35.5-18.212,67.057-18.308c31.557-0.096,62.604,35.536,75.958,59.393
		c13.357,23.855,27.596,67.39,28.758,79.706c1.161,12.314,0.055,14.308,0.055,14.308s-1.207-1.527-5.804-15.001
		c-4.598-13.473-8.892-33.88-22.545-59.223c-13.651-25.342-36.707-65.157-78.637-68.5c-41.929-3.344-70.533,25.292-81.923,42.56
		c-11.392,17.268-13.667,32.728-13.868,36.774c-0.2,4.049-0.095,4.891-0.095,4.891s47.101-22.059,81.054-11.23
		c33.954,10.829,48.14,28.226,45.24,50.265c0,0-0.673,3.354-2.688,3.033c-2.016-0.319-3.128-20.773-17.645-28.98
		c-14.517-8.206-34.295-14.911-56.527-12.448c-22.231,2.463-36.237,9.045-43.249,12.443l-4.575,1.944c0,0,3.964,12.385,3.524,16.315
		c-0.44,3.93,2.008,10.622-6.329,6.586c-8.338-4.036-9.002-8.947-9.002-8.947l-8.587,10.197c0,0-5.587-0.45-8.201-3.876
		c-2.614-3.428-1.346-3.085-1.346-3.085s6.113-15.309,7.572-16.691c1.458-1.383,1.976-0.499,1.976-0.499l0.59-4.909
		c0,0-3.502-1.978-2.911-6.485c0.592-4.506,0.403-6.243,0.403-6.243s0.484-7.498-0.49-12.104
		c-0.975-4.607-8.578-36.799-10.615-42.151c-2.038-5.355-16.052-47.053-25.714-58.625C92.661,13.608,83.849,7.769,71.427,12.228
		c-12.422,4.459-22.72,22.084-22.72,22.084s1.923,0.499,2.792-0.054c0.87-0.552,6.401-4.625,8.645-6.578
		c2.245-1.953,10.073-8.301,10.073-8.301s1.631,1.415,0.978,3.175c-0.653,1.761-3.124,7.021-3.124,7.021s1.977,0.915,4.312-0.89
		c2.335-1.805,10.767-6.941,11.701,2.581c0.933,9.522-9.29,16.901-9.29,16.901S89.646,65.843,92.64,74.391
		s2.448,14.117,2.349,17.278c-0.099,3.162-4.001,8.726-4.915,8.751c-0.916,0.025-3.382-2.716-2.797-5.23
		c0.585-2.513,1.255-12.266,0.612-16.292c-0.643-4.027-8.089-15.104-11.771-17.811C72.438,58.38,63.776,52.117,63.776,52.117z"/>
	<path fill-rule="evenodd" clip-rule="evenodd" fill="#FFFFFF" d="M113.618,115.832c0,0,3.759-18.052-1.446-17.484
		c-5.206,0.568-10.644,11.429-12.077,17.484c-1.434,6.056-10.7,59.501,31.451,87.633c42.15,28.132,87.51-1.808,101.831-21.501
		l12.34-19.288c0,0-49.667,46.797-79.968,40.79c-40.834-8.099-50.573-28.762-53.898-46.533
		C108.524,139.162,113.618,115.832,113.618,115.832z"/>
</g>
</svg>
